{"title":"Zookeeper 2011 CAM Xvid UnKnOwn","uid":6560371,"size":715019482,"categoryP":"video","categoryS":"movies","magnet":"?xt=urn:btih:22e212220789f6692e24df2c16ba2d5053475aeb&amp;dn=Zookeeper+2011+CAM+Xvid+UnKnOwn&amp;tr=udp%3A%2F%2Ftracker.openbittorrent.com%3A80&amp;tr=udp%3A%2F%2Fopen.demonii.com%3A1337&amp;tr=udp%3A%2F%2Ftracker.coppersurfer.tk%3A6969&amp;tr=udp%3A%2F%2Fexodus.desync.com%3A6969","seeders":1,"leechers":1,"uploader":"Zelulzseeder","files":5,"time":1311441410,"description":"  Encoded By .......:UnKnOwN                                                     Release Date ......... 2011\n  Runtime ..........:1:36                                                        Source       ......... Your Sister(:\n  IMDb URL .........:http://www.imdb.com/title/tt1222817/                        File Type    ......... Single AVI\n  Language .........:English                                                     PS3 Compatible ....... Why dont You complain in comments and let me know(:\n  File Size ........:681mb                                                       Genre        ......... Comedy/Kids\n\nVideo\nID                               : 0\nFormat                           : MPEG-4 Visual\nFormat profile                   : Advanced Simple@L5\nFormat settings, BVOP            : Yes\nFormat settings, QPel            : No\nFormat settings, GMC             : No warppoints\nFormat settings, Matrix          : Custom\nCodec ID                         : XVID\nCodec ID/Hint                    : XviD\nDuration                         : 1h 36mn\nBit rate                         : 1038 Kbps\nWidth                            : 640 pixels\nHeight                           : 272 pixels\nDisplay aspect ratio             : 2.35:1\nFrame rate                       : 29.970 fps\nColor space                      : YUV\nChroma subsampling               : 4:2:0\nBit depth                        : 8 bits\nScan type                        : Progressive\nBits/(Pixel*Frame)               : 0.161\nStream size                      : 579 MiB (86%)\nWriting library                  : XviD 1.2.1 (UTC 2008-12-04)\n\nAudio\nID                               : 1\nFormat                           : MPEG Audio\nFormat version                   : Version 1\nFormat profile                   : Layer 3\nMode                             : Joint stereo\nMode extension                   : MS Stereo\nCodec ID                         : 55\nCodec ID/Hint                    : MP3\nDuration                         : 1h 36mn\nBit rate mode                    : Constant\nBit rate                         : 128 Kbps\nChannel(s)                       : 2 channels\nSampling rate                    : 48.0 KHz\nStream size                      : 88.4 MiB (13%)\nAlignment                        : Aligned on interleaves\nInterleave, duration             : 24 ms (0.72 video frame)\nInterleave, preload duration     : 504 ms\n\n\n\n                                                                    SYSPNOSIS\n                             A group of zoo animals decide to break their code of silence in order to help their lovable zookeeper \n                           (Kevin James) find love -- without opting to leave his current job for something more illustrious. woman. \n","torrent":{"xt":"urn:btih:22e212220789f6692e24df2c16ba2d5053475aeb","amp;dn":"Zookeeper+2011+CAM+Xvid+UnKnOwn","amp;tr":["udp%3A%2F%2Ftracker.openbittorrent.com%3A80","udp%3A%2F%2Fopen.demonii.com%3A1337","udp%3A%2F%2Ftracker.coppersurfer.tk%3A6969","udp%3A%2F%2Fexodus.desync.com%3A6969"],"infoHash":"22e212220789f6692e24df2c16ba2d5053475aeb","infoHashBuffer":{"type":"Buffer","data":[34,226,18,34,7,137,246,105,46,36,223,44,22,186,45,80,83,71,90,235]},"announce":[],"urlList":[]}}